<svg width="332" height="329" viewBox="0 0 332 329" fill="none" xmlns="http://www.w3.org/2000/svg">
<g filter="url(#filter0_b_731_3769)">
<path d="M181.762 287.938L310.884 58.1778C318.376 44.8458 308.741 28.3794 293.448 28.3794H35.205C19.9119 28.3794 10.2773 44.8457 17.7696 58.1777L146.891 287.938C154.535 301.54 174.118 301.54 181.762 287.938Z" fill="white" fill-opacity="0.1"/>
<path d="M181.762 287.938L310.884 58.1778C318.376 44.8458 308.741 28.3794 293.448 28.3794H35.205C19.9119 28.3794 10.2773 44.8457 17.7696 58.1777L146.891 287.938C154.535 301.54 174.118 301.54 181.762 287.938Z" stroke="black" stroke-width="8"/>
</g>
<path d="M2.0484 12.4C2.0484 10.48 2.35773 9.03467 2.9764 8.064C3.60573 7.09333 4.51773 6.608 5.7124 6.608C7.00307 6.608 7.9364 7.088 8.5124 8.048C9.09907 8.99733 9.3924 10.448 9.3924 12.4C9.3924 14.32 9.07773 15.7653 8.4484 16.736C7.82973 17.7067 6.91773 18.192 5.7124 18.192C4.44307 18.192 3.51507 17.6853 2.9284 16.672C2.34173 15.6587 2.0484 14.2347 2.0484 12.4ZM3.3764 12.4C3.3764 13.0933 3.41907 13.728 3.5044 14.304C3.6004 14.8693 3.7444 15.36 3.9364 15.776C4.1284 16.1813 4.3684 16.5013 4.6564 16.736C4.95507 16.96 5.30707 17.072 5.7124 17.072C6.52307 17.072 7.11507 16.6987 7.4884 15.952C7.8724 15.1947 8.0644 14.0107 8.0644 12.4C8.0644 11.7173 8.02173 11.088 7.9364 10.512C7.86173 9.936 7.7284 9.44 7.5364 9.024C7.35507 8.608 7.11507 8.288 6.8164 8.064C6.51773 7.84 6.14973 7.728 5.7124 7.728C4.9124 7.728 4.3204 8.10667 3.9364 8.864C3.56307 9.62133 3.3764 10.8 3.3764 12.4ZM11.8072 16.816H14.0472V9.072L14.2072 8.128L13.5672 8.88L11.8072 10.144L11.1992 9.328L14.7192 6.608H15.2952V16.816H17.4872V18H11.8072V16.816Z" fill="black"/>
<path d="M313.935 15.16C313.935 13.24 314.244 11.7947 314.863 10.824C315.492 9.85334 316.404 9.36801 317.599 9.36801C318.89 9.36801 319.823 9.84801 320.399 10.808C320.986 11.7573 321.279 13.208 321.279 15.16C321.279 17.08 320.964 18.5253 320.335 19.496C319.716 20.4667 318.804 20.952 317.599 20.952C316.33 20.952 315.402 20.4453 314.815 19.432C314.228 18.4187 313.935 16.9947 313.935 15.16ZM315.263 15.16C315.263 15.8533 315.306 16.488 315.391 17.064C315.487 17.6293 315.631 18.12 315.823 18.536C316.015 18.9413 316.255 19.2613 316.543 19.496C316.842 19.72 317.194 19.832 317.599 19.832C318.41 19.832 319.002 19.4587 319.375 18.712C319.759 17.9547 319.951 16.7707 319.951 15.16C319.951 14.4773 319.908 13.848 319.823 13.272C319.748 12.696 319.615 12.2 319.423 11.784C319.242 11.368 319.002 11.048 318.703 10.824C318.404 10.6 318.036 10.488 317.599 10.488C316.799 10.488 316.207 10.8667 315.823 11.624C315.45 12.3813 315.263 13.56 315.263 15.16ZM329.102 12.104C329.102 12.6693 328.995 13.2507 328.782 13.848C328.579 14.4347 328.307 15.0267 327.966 15.624C327.635 16.2213 327.262 16.808 326.846 17.384C326.43 17.9493 326.014 18.488 325.598 19L324.814 19.688V19.752L325.838 19.576H329.326V20.76H322.958V20.296C323.193 20.0507 323.475 19.7467 323.806 19.384C324.137 19.0213 324.478 18.6213 324.83 18.184C325.193 17.736 325.545 17.2667 325.886 16.776C326.238 16.2747 326.553 15.768 326.83 15.256C327.118 14.744 327.347 14.2373 327.518 13.736C327.689 13.2347 327.774 12.76 327.774 12.312C327.774 11.7893 327.625 11.3573 327.326 11.016C327.027 10.664 326.574 10.488 325.966 10.488C325.561 10.488 325.166 10.5733 324.782 10.744C324.398 10.904 324.067 11.0907 323.79 11.304L323.262 10.392C323.635 10.072 324.078 9.82134 324.59 9.64001C325.102 9.45868 325.651 9.36801 326.238 9.36801C326.697 9.36801 327.102 9.43734 327.454 9.57601C327.806 9.70401 328.105 9.89068 328.35 10.136C328.595 10.3813 328.782 10.6747 328.91 11.016C329.038 11.3467 329.102 11.7093 329.102 12.104Z" fill="black"/>
<path d="M81.064 232.231C81.064 230.311 81.3734 228.865 81.992 227.895C82.6214 226.924 83.5334 226.439 84.728 226.439C86.0187 226.439 86.952 226.919 87.528 227.879C88.1147 228.828 88.408 230.279 88.408 232.231C88.408 234.151 88.0934 235.596 87.464 236.567C86.8454 237.537 85.9334 238.023 84.728 238.023C83.4587 238.023 82.5307 237.516 81.944 236.503C81.3574 235.489 81.064 234.065 81.064 232.231ZM82.392 232.231C82.392 232.924 82.4347 233.559 82.52 234.135C82.616 234.7 82.76 235.191 82.952 235.607C83.144 236.012 83.384 236.332 83.672 236.567C83.9707 236.791 84.3227 236.903 84.728 236.903C85.5387 236.903 86.1307 236.529 86.504 235.783C86.888 235.025 87.08 233.841 87.08 232.231C87.08 231.548 87.0374 230.919 86.952 230.343C86.8774 229.767 86.744 229.271 86.552 228.855C86.3707 228.439 86.1307 228.119 85.832 227.895C85.5334 227.671 85.1654 227.559 84.728 227.559C83.928 227.559 83.336 227.937 82.952 228.695C82.5787 229.452 82.392 230.631 82.392 232.231ZM92.8388 236.903C93.2014 236.903 93.5374 236.849 93.8468 236.743C94.1561 236.636 94.4228 236.481 94.6468 236.279C94.8708 236.065 95.0468 235.815 95.1748 235.527C95.3028 235.239 95.3668 234.924 95.3668 234.583C95.3668 233.836 95.1428 233.281 94.6948 232.919C94.2574 232.556 93.6494 232.375 92.8708 232.375H91.6868V231.911L93.9908 228.359L94.7268 227.655L93.6868 227.815H90.5188V226.631H96.2308V227.095L93.6868 230.919L93.1268 231.383V231.415L93.6708 231.303C94.0974 231.313 94.4921 231.393 94.8548 231.543C95.2174 231.681 95.5321 231.889 95.7988 232.167C96.0654 232.433 96.2734 232.759 96.4228 233.143C96.5721 233.516 96.6468 233.943 96.6468 234.423C96.6468 234.999 96.5454 235.511 96.3428 235.959C96.1401 236.407 95.8628 236.785 95.5108 237.095C95.1694 237.393 94.7641 237.623 94.2948 237.783C93.8254 237.943 93.3294 238.023 92.8068 238.023C92.3268 238.023 91.8948 237.985 91.5108 237.911C91.1268 237.836 90.7908 237.74 90.5028 237.623L90.8388 236.487C91.0841 236.604 91.3721 236.705 91.7028 236.791C92.0441 236.865 92.4228 236.903 92.8388 236.903Z" fill="black"/>
<path d="M228.478 232.231C228.478 230.311 228.787 228.865 229.406 227.895C230.035 226.924 230.947 226.439 232.142 226.439C233.433 226.439 234.366 226.919 234.942 227.879C235.529 228.828 235.822 230.279 235.822 232.231C235.822 234.151 235.507 235.596 234.878 236.567C234.259 237.537 233.347 238.023 232.142 238.023C230.873 238.023 229.945 237.516 229.358 236.503C228.771 235.489 228.478 234.065 228.478 232.231ZM229.806 232.231C229.806 232.924 229.849 233.559 229.934 234.135C230.03 234.7 230.174 235.191 230.366 235.607C230.558 236.012 230.798 236.332 231.086 236.567C231.385 236.791 231.737 236.903 232.142 236.903C232.953 236.903 233.545 236.529 233.918 235.783C234.302 235.025 234.494 233.841 234.494 232.231C234.494 231.548 234.451 230.919 234.366 230.343C234.291 229.767 234.158 229.271 233.966 228.855C233.785 228.439 233.545 228.119 233.246 227.895C232.947 227.671 232.579 227.559 232.142 227.559C231.342 227.559 230.75 227.937 230.366 228.695C229.993 229.452 229.806 230.631 229.806 232.231ZM239.917 236.903C240.653 236.903 241.261 236.689 241.741 236.263C242.221 235.836 242.461 235.217 242.461 234.407C242.461 233.628 242.221 233.047 241.741 232.663C241.272 232.279 240.621 232.087 239.789 232.087L238.445 232.167V226.631H243.437V227.815H239.645V230.999L240.333 230.967C241.389 230.977 242.221 231.271 242.829 231.847C243.437 232.423 243.741 233.249 243.741 234.327C243.741 234.924 243.64 235.457 243.437 235.927C243.234 236.385 242.957 236.769 242.605 237.079C242.264 237.388 241.858 237.623 241.389 237.783C240.92 237.943 240.418 238.023 239.885 238.023C239.405 238.023 239 237.996 238.669 237.943C238.338 237.889 238.029 237.809 237.741 237.703L238.077 236.615C238.322 236.711 238.584 236.785 238.861 236.839C239.149 236.881 239.501 236.903 239.917 236.903Z" fill="black"/>
<path d="M155.689 317.846C155.689 315.926 155.998 314.48 156.617 313.51C157.246 312.539 158.158 312.054 159.353 312.054C160.644 312.054 161.577 312.534 162.153 313.494C162.74 314.443 163.033 315.894 163.033 317.846C163.033 319.766 162.718 321.211 162.089 322.182C161.47 323.152 160.558 323.638 159.353 323.638C158.084 323.638 157.156 323.131 156.569 322.118C155.982 321.104 155.689 319.68 155.689 317.846ZM157.017 317.846C157.017 318.539 157.06 319.174 157.145 319.75C157.241 320.315 157.385 320.806 157.577 321.222C157.769 321.627 158.009 321.947 158.297 322.182C158.596 322.406 158.948 322.518 159.353 322.518C160.164 322.518 160.756 322.144 161.129 321.398C161.513 320.64 161.705 319.456 161.705 317.846C161.705 317.163 161.662 316.534 161.577 315.958C161.502 315.382 161.369 314.886 161.177 314.47C160.996 314.054 160.756 313.734 160.457 313.51C160.158 313.286 159.79 313.174 159.353 313.174C158.553 313.174 157.961 313.552 157.577 314.31C157.204 315.067 157.017 316.246 157.017 317.846ZM171.592 320.07C171.592 320.56 171.517 321.024 171.368 321.462C171.218 321.888 171 322.267 170.712 322.598C170.424 322.918 170.066 323.174 169.64 323.366C169.213 323.547 168.728 323.638 168.184 323.638C167.65 323.638 167.17 323.552 166.744 323.382C166.317 323.211 165.949 322.96 165.64 322.63C165.33 322.288 165.09 321.872 164.92 321.382C164.76 320.891 164.68 320.326 164.68 319.686C164.68 318.63 164.813 317.659 165.08 316.774C165.357 315.878 165.736 315.099 166.216 314.438C166.696 313.776 167.261 313.243 167.912 312.838C168.573 312.422 169.288 312.16 170.056 312.054L170.328 313.078C169.73 313.184 169.186 313.387 168.696 313.686C168.205 313.984 167.773 314.352 167.4 314.79C167.037 315.227 166.738 315.718 166.504 316.262C166.269 316.806 166.109 317.366 166.024 317.942C166.194 317.654 166.482 317.392 166.888 317.158C167.293 316.912 167.789 316.79 168.376 316.79C169.378 316.79 170.162 317.078 170.728 317.654C171.304 318.23 171.592 319.035 171.592 320.07ZM170.264 320.198C170.264 319.44 170.088 318.87 169.736 318.486C169.384 318.102 168.84 317.91 168.104 317.91C167.581 317.91 167.128 318.038 166.744 318.294C166.37 318.55 166.109 318.838 165.96 319.158C165.938 319.307 165.928 319.43 165.928 319.526C165.928 319.622 165.928 319.728 165.928 319.846C165.928 320.176 165.97 320.502 166.056 320.822C166.152 321.142 166.296 321.43 166.488 321.686C166.68 321.931 166.914 322.134 167.192 322.294C167.48 322.443 167.816 322.518 168.2 322.518C168.509 322.518 168.786 322.459 169.032 322.342C169.288 322.224 169.506 322.064 169.688 321.862C169.869 321.659 170.008 321.414 170.104 321.126C170.21 320.838 170.264 320.528 170.264 320.198Z" fill="black"/>
<path d="M155.689 153.109C155.689 151.189 155.998 149.744 156.617 148.773C157.246 147.803 158.158 147.317 159.353 147.317C160.644 147.317 161.577 147.797 162.153 148.757C162.74 149.707 163.033 151.157 163.033 153.109C163.033 155.029 162.718 156.475 162.089 157.445C161.47 158.416 160.558 158.901 159.353 158.901C158.084 158.901 157.156 158.395 156.569 157.381C155.982 156.368 155.689 154.944 155.689 153.109ZM157.017 153.109C157.017 153.803 157.06 154.437 157.145 155.013C157.241 155.579 157.385 156.069 157.577 156.485C157.769 156.891 158.009 157.211 158.297 157.445C158.596 157.669 158.948 157.781 159.353 157.781C160.164 157.781 160.756 157.408 161.129 156.661C161.513 155.904 161.705 154.72 161.705 153.109C161.705 152.427 161.662 151.797 161.577 151.221C161.502 150.645 161.369 150.149 161.177 149.733C160.996 149.317 160.756 148.997 160.457 148.773C160.158 148.549 159.79 148.437 159.353 148.437C158.553 148.437 157.961 148.816 157.577 149.573C157.204 150.331 157.017 151.509 157.017 153.109ZM172.104 155.269H170.216V158.709H168.968V155.269H164.04V154.741L169.352 147.333H170.216V154.149H172.104V155.269ZM168.968 150.661L169.128 149.349H169.08L168.52 150.437L166.264 153.493L165.496 154.277L166.616 154.149H168.968V150.661Z" fill="black"/>
<path d="M113.602 228.513L313.132 36.7849" stroke="black" stroke-width="8"/>
<path d="M215.383 228.943L15.739 36.6592" stroke="black" stroke-width="8"/>
<defs>
<filter id="filter0_b_731_3769" x="-136.883" y="-123.673" width="602.419" height="573.866" filterUnits="userSpaceOnUse" color-interpolation-filters="sRGB">
<feFlood flood-opacity="0" result="BackgroundImageFix"/>
<feGaussianBlur in="BackgroundImageFix" stdDeviation="74.0263"/>
<feComposite in2="SourceAlpha" operator="in" result="effect1_backgroundBlur_731_3769"/>
<feBlend mode="normal" in="SourceGraphic" in2="effect1_backgroundBlur_731_3769" result="shape"/>
</filter>
</defs>
</svg>
