<svg width="49" height="42" viewBox="0 0 49 42" fill="none" xmlns="http://www.w3.org/2000/svg">
<g id="Group 1000005214">
<g id="Group">
<g id="Group_2">
<g id="Group_3">
<path id="Vector" d="M47.8484 31.8819C47.8484 33.0266 46.9118 33.9631 45.7672 33.9631H3.08123C1.93655 33.9631 1 33.0266 1 31.8819V3.08123C1 1.93655 1.93655 1 3.08123 1H45.7665C46.9111 1 47.8477 1.93655 47.8477 3.08123L47.8484 31.8819Z" stroke="black" stroke-width="1.5" stroke-miterlimit="10" stroke-linecap="round" stroke-linejoin="round"/>
</g>
<path id="Vector_2" d="M1 30.3101H47.8484" stroke="black" stroke-width="1.5" stroke-miterlimit="10" stroke-linecap="round" stroke-linejoin="round"/>
<g id="Group_4">
<path id="Vector_3" d="M19.8717 33.952L15.1016 40.109" stroke="black" stroke-width="1.5" stroke-miterlimit="10" stroke-linecap="round" stroke-linejoin="round"/>
<path id="Vector_4" d="M28.9766 33.952L33.7467 40.109" stroke="black" stroke-width="1.5" stroke-miterlimit="10" stroke-linecap="round" stroke-linejoin="round"/>
</g>
<path id="Vector_5" d="M11.416 40.543H37.4313" stroke="black" stroke-width="1.5" stroke-miterlimit="10" stroke-linecap="round" stroke-linejoin="round"/>
</g>
</g>
<g id="Group_5">
<g id="Group_6">
<path id="Vector_6" d="M17.4424 22.0597L12.4287 17.0467L17.4424 12.0337" stroke="black" stroke-width="1.5" stroke-miterlimit="10" stroke-linecap="round" stroke-linejoin="round"/>
<path id="Vector_7" d="M31.4053 22.0598L36.4189 17.0468L31.4053 12.0338" stroke="black" stroke-width="1.5" stroke-miterlimit="10" stroke-linecap="round" stroke-linejoin="round"/>
<path id="Vector_8" d="M25.7809 12.0793L22.29 22.0158" stroke="black" stroke-width="1.5" stroke-miterlimit="10" stroke-linecap="round" stroke-linejoin="round"/>
</g>
</g>
</g>
</svg>
