<svg width="269" height="269" viewBox="0 0 269 269" fill="none" xmlns="http://www.w3.org/2000/svg">
<g clip-path="url(#clip0_119_769)">
<path d="M269 131.423H220.6C198.545 131.402 177.4 122.622 161.804 107.008C146.209 91.3952 137.439 70.2251 137.418 48.1446V0H131.271V48.1446C131.271 70.2314 122.507 91.4136 106.907 107.031C91.3076 122.649 70.15 131.423 48.0887 131.423H0V137.577H48.0887C59.0152 137.567 69.8365 139.714 79.9332 143.896C90.03 148.077 99.2039 154.211 106.93 161.946C114.656 169.681 120.783 178.866 124.96 188.974C129.136 199.083 131.281 209.917 131.271 220.856V269H137.418V220.856C137.418 198.77 146.182 177.586 161.782 161.969C177.381 146.351 198.539 137.577 220.6 137.577H269V131.423Z" fill="black"/>
</g>
<defs>
<clipPath id="clip0_119_769">
<rect width="269" height="269" fill="white"/>
</clipPath>
</defs>
</svg>
