<svg width="30" height="26" viewBox="0 0 30 26" fill="none" xmlns="http://www.w3.org/2000/svg">
<path id="Vector" d="M14.5484 17.5856C12.0542 17.5856 10.4839 16.0153 10.4839 13.5211C10.4839 11.0269 12.9574 8.55331 15.4516 8.55331C17.9458 8.55331 20.4194 10.3598 20.871 13.0694C21.3226 14.8759 20.4193 20.2954 15.4516 21.1986M13.4427 10.5568C13.4427 10.5568 14.0968 9.90815 15.4516 9.90815C16.8065 9.90815 19.5161 11.263 19.0645 14.8759C18.1613 19.392 14.0968 19.392 14.0968 19.392C11.1847 19.6782 7.77421 16.8675 7.77421 13.5211C7.77421 9.03151 11.4137 5.39201 15.9032 5.39201C18.7977 5.39201 21.7142 6.90474 23.4213 9.18272C23.5053 9.29487 23.5864 9.40887 23.6644 9.52463M5.96776 7.65008C3.25806 13.9728 7.21237 20.7712 13.1936 21.1985C13.4419 21.2162 13.6833 21.2242 13.9179 21.223M29 10.8114C29 10.8114 26.7419 2.68248 17.7097 1.32748C13.5306 0.70054 9.7533 2.1021 7.38128 5.21039M1 18.0373C1 18.0373 7.11061 27.8926 17.7097 24.3598C21.7742 23.0051 24.9355 18.0106 24.9355 13.5211C24.9355 13.0595 24.8875 12.6069 24.7964 12.1663M6.87096 1.32759C6.78905 1.40934 6.41935 1.20272 6.41935 1.32759C6.41935 1.45246 6.76939 1.30529 6.8513 1.38704C6.933 1.46858 6.74641 1.7792 6.87096 1.7792C6.99551 1.7792 6.78926 1.40913 6.87096 1.32759ZM6.87096 1.32759C6.95266 1.24605 6.74641 0.875977 6.87096 0.875977C6.99551 0.875977 6.78926 1.24605 6.87096 1.32759ZM6.87096 1.32759C6.95287 1.40934 7.32258 1.20272 7.32258 1.32759C7.32258 1.45246 6.95287 1.24584 6.87096 1.32759ZM21.3226 4.9405C21.2407 5.02225 20.871 4.81563 20.871 4.9405C20.871 5.06537 21.221 4.9182 21.3029 4.99995C21.3846 5.08149 21.198 5.39212 21.3226 5.39212C21.4471 5.39212 21.2409 5.02205 21.3226 4.9405ZM21.3226 4.9405C21.4043 4.85896 21.198 4.48889 21.3226 4.48889C21.4471 4.48889 21.2409 4.85896 21.3226 4.9405ZM21.3226 4.9405C21.4045 5.02225 21.7742 4.81563 21.7742 4.9405C21.7742 5.06537 21.4045 4.85875 21.3226 4.9405ZM5.06451 18.4889C4.9826 18.5707 4.6129 18.3641 4.6129 18.4889C4.6129 18.6138 4.96294 18.4666 5.04485 18.5484C5.12655 18.6299 4.93996 18.9405 5.06451 18.9405C5.18906 18.9405 4.98281 18.5705 5.06451 18.4889ZM5.06451 18.4889C5.14621 18.4074 4.93996 18.0373 5.06451 18.0373C5.18906 18.0373 4.98281 18.4074 5.06451 18.4889ZM5.06451 18.4889C5.14642 18.5707 5.51613 18.3641 5.51613 18.4889C5.51613 18.6138 5.14642 18.4072 5.06451 18.4889ZM23.129 23.9083C23.0471 23.99 22.6774 23.7834 22.6774 23.9083C22.6774 24.0332 23.0274 23.886 23.1094 23.9677C23.1911 24.0493 23.0045 24.3599 23.129 24.3599C23.2536 24.3599 23.0473 23.9898 23.129 23.9083ZM23.129 23.9083C23.2107 23.8267 23.0045 23.4567 23.129 23.4567C23.2536 23.4567 23.0473 23.8267 23.129 23.9083ZM23.129 23.9083C23.2109 23.99 23.5806 23.7834 23.5806 23.9083C23.5806 24.0332 23.2109 23.8265 23.129 23.9083ZM17.2581 13.747C17.2581 14.8694 16.3482 15.7792 15.2258 15.7792C14.1034 15.7792 13.1935 14.8694 13.1935 13.747C13.1935 12.6246 14.1034 11.7147 15.2258 11.7147C16.3482 11.7147 17.2581 12.6246 17.2581 13.747ZM26.2903 10.8115C26.2903 11.8092 25.4815 12.6179 24.4839 12.6179C23.4862 12.6179 22.6774 11.8092 22.6774 10.8115C22.6774 9.81381 23.4862 9.00503 24.4839 9.00503C25.4815 9.00503 26.2903 9.81381 26.2903 10.8115ZM8.2258 6.29534C8.2258 7.29302 7.41703 8.1018 6.41935 8.1018C5.42168 8.1018 4.6129 7.29302 4.6129 6.29534C4.6129 5.29767 5.42168 4.48889 6.41935 4.48889C7.41703 4.48889 8.2258 5.29767 8.2258 6.29534ZM15.4516 21.6502C15.4516 22.1491 15.0472 22.5534 14.5484 22.5534C14.0495 22.5534 13.6452 22.1491 13.6452 21.6502C13.6452 21.1514 14.0495 20.747 14.5484 20.747C15.0472 20.747 15.4516 21.1514 15.4516 21.6502Z" stroke="black" stroke-width="0.903226"/>
</svg>
