<svg width="28" height="28" viewBox="0 0 28 28" fill="none" xmlns="http://www.w3.org/2000/svg">
<path id="Vector (Stroke)" fill-rule="evenodd" clip-rule="evenodd" d="M10.7439 10.3176C10.4605 11.1569 10.1971 12.035 9.95911 12.9442C9.56553 14.448 9.27435 15.9119 9.08121 17.2926C9.33837 17.5701 9.60388 17.846 9.87755 18.1194C10.2437 18.4853 10.6142 18.8366 10.9874 19.1728C12.3166 18.9811 13.7188 18.695 15.1559 18.3103C15.8774 18.1171 16.5788 17.9068 17.2562 17.6823C17.5396 16.8431 17.803 15.965 18.041 15.0558C18.4346 13.5519 18.7258 12.0879 18.9189 10.7071C18.6619 10.4297 18.3965 10.1541 18.123 9.8808C17.7567 9.5148 17.3861 9.16339 17.0128 8.82708C15.6835 9.01882 14.2813 9.30486 12.8441 9.68963C12.1227 9.88277 11.4213 10.0931 10.7439 10.3176ZM9.41211 10.7887C9.2215 11.3973 9.0418 12.0223 8.87468 12.6608C8.55909 13.8666 8.30639 15.0521 8.11558 16.196C7.09789 14.9788 6.24256 13.7455 5.56738 12.5507C6.69018 11.9238 7.98587 11.326 9.41211 10.7887ZM11.2208 8.99013C11.6576 8.85639 12.1023 8.72875 12.554 8.60782C13.6904 8.30358 14.8099 8.05819 15.8946 7.87063C14.8315 7.00853 13.7597 6.27061 12.7152 5.66862C12.1904 6.65569 11.6857 7.77226 11.2208 8.99013ZM11.729 5.13631C11.0582 6.39706 10.4252 7.84757 9.86362 9.43385C8.06941 10.0588 6.43835 10.7836 5.04422 11.5599C4.79699 11.0556 4.5842 10.5614 4.40728 10.0816C3.46896 7.53688 3.60519 5.61229 4.60533 4.61298C5.26545 3.95341 6.32898 3.66988 7.70811 3.82289C7.8209 4.64739 8.52856 5.28265 9.38472 5.28265C9.91418 5.28265 10.3868 5.03971 10.6972 4.65931C11.0356 4.80177 11.38 4.96092 11.729 5.13631ZM13.2656 4.69287C14.6259 5.47602 16.0168 6.47026 17.371 7.64798C17.9972 7.56771 18.6079 7.50789 19.1996 7.46829C19.2197 6.74073 19.2059 6.05595 19.159 5.42326C19.0639 4.13909 18.8351 3.10169 18.5012 2.36327C18.1648 1.61927 17.763 1.26139 17.3615 1.15648C16.96 1.05157 16.4343 1.16711 15.7764 1.65133C15.1235 2.13191 14.4156 2.92456 13.7035 3.99782C13.5568 4.21893 13.4107 4.4508 13.2656 4.69287ZM20.3222 7.41677C20.3401 6.68331 20.3248 5.98839 20.2769 5.34062C20.1765 3.98582 19.9309 2.80495 19.5227 1.90216C19.117 1.00497 18.5091 0.298721 17.645 0.072948C16.781 -0.152825 15.9049 0.165702 15.1116 0.749613C14.3133 1.33716 13.5205 2.2467 12.7693 3.37899C12.6046 3.62727 12.441 3.88755 12.279 4.15914C11.8734 3.95394 11.4721 3.76864 11.077 3.60401C11.077 3.59994 11.077 3.59586 11.077 3.59178C11.077 2.65793 10.3193 1.90091 9.38472 1.90091C8.76788 1.90091 8.22812 2.23066 7.93238 2.72336C6.28161 2.5196 4.8157 2.81892 3.81274 3.82104C2.31708 5.31545 2.38563 7.83852 3.35549 10.4688C3.5553 11.0107 3.79624 11.5664 4.07623 12.1309C3.8063 12.2999 3.54778 12.4706 3.30138 12.6427C2.17783 13.4273 1.28008 14.2575 0.706937 15.095C0.135198 15.9305 -0.15437 16.8386 0.0835407 17.7258C0.321451 18.6129 1.02664 19.2547 1.93988 19.6926C2.85536 20.1316 4.04825 20.402 5.41392 20.5203C6.1179 20.5812 6.87616 20.6024 7.67785 20.5832C7.66313 21.1869 7.67086 21.7646 7.70082 22.3114C7.09837 22.5702 6.67652 23.1686 6.67652 23.8654C6.67652 24.7634 7.37708 25.4978 8.2619 25.5529C8.32793 25.7442 8.39972 25.926 8.4774 26.0978C8.88308 26.995 9.49093 27.7013 10.355 27.9271C11.2191 28.1528 12.0952 27.8343 12.8885 27.2504C13.6867 26.6628 14.4795 25.7533 15.2308 24.621C15.3955 24.3727 15.5591 24.1124 15.7211 23.8408C16.3376 24.1528 16.9443 24.4188 17.5346 24.636C20.167 25.6051 22.6922 25.6736 24.1879 24.1792C25.6835 22.6848 25.615 20.1617 24.6451 17.5314C24.4452 16.9894 24.2042 16.4335 23.9241 15.8688C24.1852 15.7054 24.4356 15.5403 24.6747 15.3739C24.9524 15.5734 25.2932 15.6909 25.6614 15.6909C26.596 15.6909 27.3537 14.9339 27.3537 14.0001C27.3537 13.6875 27.2688 13.3948 27.1208 13.1436C27.1811 13.0641 27.2386 12.9845 27.2931 12.9049C27.8648 12.0694 28.1544 11.1613 27.9165 10.2742C27.6786 9.38701 26.9734 8.74526 26.0601 8.30733C25.1446 7.86833 23.9517 7.59789 22.5861 7.47968C21.8821 7.41874 21.1239 7.39757 20.3222 7.41677ZM19.1435 8.59483C18.9217 8.61077 18.6968 8.62966 18.4691 8.65154C18.6186 8.7951 18.7675 8.94088 18.9156 9.08886C18.9736 9.14673 19.0311 9.20473 19.0884 9.26284C19.1096 9.0372 19.128 8.81446 19.1435 8.59483ZM20.0982 10.3382C20.1749 9.72119 20.2325 9.12002 20.2709 8.53841C21.0623 8.51682 21.8057 8.53628 22.4893 8.59546C23.7795 8.70714 24.8257 8.95765 25.5751 9.31703C26.3268 9.67749 26.7124 10.1116 26.8338 10.564C26.9551 11.0165 26.8384 11.5851 26.3678 12.2728C26.3345 12.3213 26.2997 12.3702 26.2634 12.4193C26.0763 12.3481 25.8734 12.3092 25.6614 12.3092C24.7268 12.3092 23.9691 13.0662 23.9691 14.0001C23.9691 14.1583 23.9908 14.3114 24.0315 14.4567C23.829 14.5975 23.6174 14.7377 23.3969 14.877C22.5452 13.374 21.4331 11.8307 20.0982 10.3382ZM19.8845 11.8037C19.6937 12.9477 19.441 14.1332 19.1254 15.3392C18.9583 15.9777 18.7786 16.6026 18.588 17.2112C20.0143 16.6739 21.3101 16.076 22.4329 15.4491C21.7577 14.2543 20.9023 13.0209 19.8845 11.8037ZM22.9561 16.4399C21.5619 17.2162 19.9308 17.9411 18.1365 18.566C17.5749 20.1523 16.9419 21.6029 16.2711 22.8637C16.8352 23.1472 17.3876 23.3884 17.9221 23.5851C20.4689 24.5227 22.3951 24.3865 23.3953 23.3872C24.3954 22.3879 24.5316 20.4633 23.5933 17.9186C23.4163 17.4386 23.2035 16.9443 22.9561 16.4399ZM15.2849 22.3313C15.8097 21.3442 16.3144 20.2276 16.7793 19.0098C16.3425 19.1435 15.8977 19.2712 15.446 19.3921C14.3097 19.6963 13.1903 19.9417 12.1056 20.1293C13.1687 20.9914 14.2405 21.7293 15.2849 22.3313ZM9.53121 19.3484C9.38173 19.2049 9.23295 19.0592 9.08495 18.9114C9.02687 18.8533 8.96911 18.7952 8.9117 18.7369C8.89048 18.9626 8.87209 19.1854 8.85652 19.4051C9.07847 19.3891 9.30344 19.3702 9.53121 19.3484ZM8.80046 20.5316C9.39217 20.492 10.003 20.4322 10.6292 20.3519C11.9834 21.5296 13.3742 22.5239 14.7346 23.3071C14.5894 23.5492 14.4432 23.7811 14.2965 24.0022C13.5844 25.0754 12.8766 25.8681 12.2237 26.3487C11.5658 26.8329 11.0401 26.9484 10.6386 26.8435C10.2371 26.7386 9.83531 26.3807 9.49889 25.6367C9.44397 25.5153 9.39189 25.3857 9.34279 25.2483C9.77727 24.9423 10.0611 24.4369 10.0611 23.8654C10.0611 23.0874 9.5352 22.4321 8.81922 22.2351C8.79034 21.6997 8.78391 21.1301 8.80046 20.5316ZM7.72914 19.4615C7.76762 18.8798 7.82514 18.2786 7.90187 17.6614C6.56704 16.169 5.45502 14.6257 4.60339 13.1227C4.37377 13.2678 4.15365 13.4139 3.94352 13.5607C2.88208 14.3019 2.10142 15.0415 1.63222 15.7272C1.16162 16.4149 1.0449 16.9834 1.16625 17.4359C1.28759 17.8884 1.67318 18.3224 2.42487 18.6829C3.17431 19.0423 4.22049 19.2928 5.51067 19.4045C6.19435 19.4636 6.93772 19.4831 7.72914 19.4615ZM25.7343 14.5664C25.903 14.4245 26.0637 14.2816 26.216 14.138C26.1599 14.3637 25.9694 14.5364 25.7343 14.5664ZM7.83047 23.6736C7.85652 23.8592 7.88584 24.0403 7.91847 24.2168C7.84262 24.1199 7.79742 23.9979 7.79742 23.8654C7.79742 23.7981 7.80907 23.7335 7.83047 23.6736ZM9.30382 4.15701C9.24996 4.14938 9.19851 4.13425 9.15058 4.1127C9.20136 4.127 9.25244 4.14176 9.30382 4.15701ZM9.67355 3.09907C9.58306 3.07192 9.49281 3.04594 9.40285 3.02115C9.50141 3.02422 9.59368 3.05223 9.67355 3.09907ZM14.0002 12.0598C12.9278 12.0598 12.0584 12.9284 12.0584 13.9999C12.0584 15.0714 12.9278 15.9401 14.0002 15.9401C15.0726 15.9401 15.9419 15.0714 15.9419 13.9999C15.9419 12.9284 15.0726 12.0598 14.0002 12.0598ZM10.9375 13.9999C10.9375 12.3098 12.3087 10.9398 14.0002 10.9398C15.6916 10.9398 17.0628 12.3098 17.0628 13.9999C17.0628 15.69 15.6916 17.06 14.0002 17.06C12.3087 17.06 10.9375 15.69 10.9375 13.9999Z" fill="black"/>
</svg>
