<svg width="200" height="53" viewBox="0 0 200 53" fill="none" xmlns="http://www.w3.org/2000/svg">
<g id="Google Play">
<g id="Group">
<path id="BG" d="M192.507 52.8213H7.40413C3.33371 52.8213 0 49.8946 0 46.3211V7.32013C0 3.74667 3.33371 0.81997 7.40413 0.81997H192.507C196.578 0.81997 199.911 3.74667 199.911 7.32013V46.3211C199.911 49.8946 196.578 52.8213 192.507 52.8213Z" fill="white"/>
<path id="Border" d="M192.507 1.86162C195.935 1.86162 198.725 4.31056 198.725 7.32013V46.3211C198.725 49.3307 195.935 51.7796 192.507 51.7796H7.40413C3.97602 51.7796 1.18651 49.3307 1.18651 46.3211V7.32013C1.18651 4.31056 3.97602 1.86162 7.40413 1.86162H192.507ZM192.507 0.81997H7.40413C3.33371 0.81997 0 3.74667 0 7.32013V46.3211C0 49.8946 3.33371 52.8213 7.40413 52.8213H192.507C196.578 52.8213 199.911 49.8946 199.911 46.3211V7.32013C199.911 3.74667 196.578 0.81997 192.507 0.81997Z" fill="#A6A6A6"/>
<g id="Icon">
<path id="Vector" d="M15.4524 10.6205C15.0174 11.0203 14.7656 11.6427 14.7656 12.4487V41.1989C14.7656 42.005 15.0174 42.6274 15.4524 43.0271L15.5597 43.1149L33.9108 27.0107V26.6304L15.5597 10.5263L15.4524 10.6205Z" fill="url(#paint0_linear_731_3610)"/>
<path id="Vector_2" d="M40.0214 32.3815L33.9111 27.0107V26.6304L40.0288 21.2597L40.1658 21.3296L47.4107 24.9485C49.4783 25.9756 49.4783 27.6656 47.4107 28.6991L40.1658 32.3116L40.0214 32.3815V32.3815Z" fill="url(#paint1_linear_731_3610)"/>
<path id="Vector_3" d="M40.1653 32.3116L33.9106 26.8206L15.4521 43.0271C16.1389 43.6609 17.2588 43.7373 18.5323 43.1035L40.1653 32.3116" fill="url(#paint2_linear_731_3610)"/>
<path id="Vector_4" d="M40.1653 21.3295L18.5323 10.5376C17.2588 9.91038 16.1389 9.98676 15.4521 10.6205L33.9106 26.8206L40.1653 21.3295Z" fill="url(#paint3_linear_731_3610)"/>
</g>
<g id="GET IT ON">
<path id="G" d="M70.2175 14.1371C70.2175 15.2226 69.8473 16.092 69.118 16.7404C68.2795 17.5091 67.1874 17.8958 65.8491 17.8958C64.57 17.8958 63.4779 17.5026 62.582 16.7274C61.6843 15.9409 61.2363 14.9756 61.2363 13.8202C61.2363 12.6648 61.6843 11.6996 62.582 10.9195C63.4779 10.1379 64.57 9.74463 65.8491 9.74463C66.4859 9.74463 67.093 9.86001 67.6724 10.0745C68.2499 10.2906 68.72 10.5831 69.0606 10.9439L68.2869 11.6297C67.6927 11.0138 66.8838 10.7099 65.8491 10.7099C64.9162 10.7099 64.1073 10.9959 63.4205 11.5728C62.7412 12.1513 62.4006 12.9005 62.4006 13.8202C62.4006 14.74 62.7412 15.4956 63.4205 16.0742C64.1073 16.6446 64.9162 16.9371 65.8491 16.9371C66.8394 16.9371 67.6724 16.6446 68.3295 16.0677C68.7626 15.6858 69.0088 15.1593 69.0736 14.4865H65.8491V13.5472H70.1509C70.2027 13.7504 70.2175 13.947 70.2175 14.1371V14.1371Z" fill="black" stroke="black" stroke-width="0.16" stroke-miterlimit="10"/>
<path id="E" d="M77.0422 10.8806H73.0014V13.3507H76.6442V14.2899H73.0014V16.76H77.0422V17.7172H71.8574V9.92346H77.0422V10.8806Z" fill="black" stroke="black" stroke-width="0.16" stroke-miterlimit="10"/>
<path id="T" d="M81.8588 17.7172H80.7149V10.8806H78.2363V9.92346H84.3392V10.8806H81.8588V17.7172V17.7172Z" fill="black" stroke="black" stroke-width="0.16" stroke-miterlimit="10"/>
<path id="I" d="M88.7559 17.7172V9.92346H89.898V17.7172H88.7559Z" fill="black" stroke="black" stroke-width="0.16" stroke-miterlimit="10"/>
<path id="T_2" d="M94.9603 17.7172H93.8257V10.8806H91.3379V9.92346H97.4481V10.8806H94.9603V17.7172Z" fill="black" stroke="black" stroke-width="0.16" stroke-miterlimit="10"/>
<path id="O" d="M109.002 16.7144C108.127 17.5026 107.042 17.8958 105.748 17.8958C104.447 17.8958 103.362 17.5026 102.486 16.7144C101.613 15.9279 101.178 14.9626 101.178 13.8202C101.178 12.6778 101.613 11.7126 102.486 10.926C103.362 10.1379 104.447 9.74463 105.748 9.74463C107.034 9.74463 108.119 10.1379 108.995 10.9325C109.876 11.7256 110.311 12.6843 110.311 13.8202C110.311 14.9626 109.876 15.9279 109.002 16.7144ZM103.332 16.0612C103.991 16.6446 104.793 16.9371 105.748 16.9371C106.696 16.9371 107.505 16.6446 108.156 16.0612C108.813 15.4778 109.146 14.7286 109.146 13.8202C109.146 12.9118 108.813 12.1627 108.156 11.5793C107.505 10.9959 106.696 10.7034 105.748 10.7034C104.793 10.7034 103.991 10.9959 103.332 11.5793C102.675 12.1627 102.342 12.9118 102.342 13.8202C102.342 14.7286 102.675 15.4778 103.332 16.0612V16.0612Z" fill="black" stroke="black" stroke-width="0.16" stroke-miterlimit="10"/>
<path id="N" d="M111.916 17.7172V9.92346H113.304L117.621 15.9849H117.671L117.621 14.4866V9.92346H118.763V17.7172H117.571L113.051 11.3567H113.001L113.051 12.8615V17.7172H111.916V17.7172Z" fill="black" stroke="black" stroke-width="0.16" stroke-miterlimit="10"/>
</g>
<g id="Google Play_2">
<path id="Google Play_3" d="M100.896 29.0989C97.4183 29.0989 94.577 31.4227 94.577 34.6289C94.577 37.8091 97.4183 40.1573 100.896 40.1573C104.382 40.1573 107.223 37.8091 107.223 34.6289C107.223 31.4227 104.382 29.0989 100.896 29.0989ZM100.896 37.9798C98.988 37.9798 97.3461 36.5969 97.3461 34.6289C97.3461 32.635 98.988 31.2765 100.896 31.2765C102.805 31.2765 104.454 32.635 104.454 34.6289C104.454 36.5969 102.805 37.9798 100.896 37.9798V37.9798ZM87.1081 29.0989C83.6226 29.0989 80.7886 31.4227 80.7886 34.6289C80.7886 37.8091 83.6226 40.1573 87.1081 40.1573C90.5917 40.1573 93.4275 37.8091 93.4275 34.6289C93.4275 31.4227 90.5917 29.0989 87.1081 29.0989ZM87.1081 37.9798C85.1978 37.9798 83.5504 36.5969 83.5504 34.6289C83.5504 32.635 85.1978 31.2765 87.1081 31.2765C89.0165 31.2765 90.6583 32.635 90.6583 34.6289C90.6583 36.5969 89.0165 37.9798 87.1081 37.9798ZM70.7005 30.7938V33.1437H77.0921C76.9052 34.4567 76.4054 35.422 75.6391 36.0947C74.7061 36.9072 73.2531 37.8091 70.7005 37.8091C66.7671 37.8091 63.687 35.0222 63.687 31.569C63.687 28.1158 66.7671 25.3288 70.7005 25.3288C72.8274 25.3288 74.3748 26.0585 75.5169 27.0042L77.4031 25.3483C75.8057 24.0093 73.6807 22.9806 70.7005 22.9806C65.3066 22.9806 60.7734 26.8336 60.7734 31.569C60.7734 36.3044 65.3066 40.1573 70.7005 40.1573C73.6159 40.1573 75.8057 39.3188 77.5271 37.7458C79.2912 36.1971 79.8409 34.0195 79.8409 32.2613C79.8409 31.7152 79.7891 31.2131 79.6965 30.7938H70.7005ZM137.793 32.6155C137.273 31.3789 135.668 29.0989 132.399 29.0989C129.16 29.0989 126.463 31.3399 126.463 34.6289C126.463 37.7263 129.132 40.1573 132.71 40.1573C135.603 40.1573 137.273 38.6087 137.96 37.7068L135.812 36.4506C135.096 37.3704 134.121 37.9798 132.71 37.9798C131.309 37.9798 130.304 37.4159 129.66 36.3044L138.084 33.2444L137.793 32.6155V32.6155ZM129.204 34.4567C129.132 32.3246 131.09 31.2326 132.494 31.2326C133.593 31.2326 134.526 31.7152 134.837 32.4059L129.204 34.4567V34.4567ZM122.357 39.8209H125.126V23.5705H122.357V39.8209ZM117.822 30.3307H117.73C117.108 29.6839 115.921 29.0989 114.418 29.0989C111.264 29.0989 108.38 31.53 108.38 34.6468C108.38 37.7458 111.264 40.1573 114.418 40.1573C115.921 40.1573 117.108 39.5674 117.73 38.9012H117.822V39.6942C117.822 41.8084 116.536 42.9443 114.461 42.9443C112.769 42.9443 111.719 41.8717 111.286 40.9698L108.878 41.8522C109.572 43.318 111.41 45.1218 114.461 45.1218C117.707 45.1218 120.447 43.4448 120.447 39.3643V29.4353H117.822V30.3307V30.3307ZM114.655 37.9798C112.747 37.9798 111.149 36.5774 111.149 34.6468C111.149 32.6984 112.747 31.2765 114.655 31.2765C116.536 31.2765 118.018 32.6984 118.018 34.6468C118.018 36.5774 116.536 37.9798 114.655 37.9798V37.9798ZM150.758 23.5705H144.135V39.8209H146.896V33.6637H150.758C153.825 33.6637 156.833 31.7152 156.833 28.6163C156.833 25.519 153.817 23.5705 150.758 23.5705V23.5705ZM150.83 31.4032H146.896V25.831H150.83C152.892 25.831 154.069 27.3341 154.069 28.6163C154.069 29.8741 152.892 31.4032 150.83 31.4032ZM167.902 29.068C165.906 29.068 163.831 29.8416 162.978 31.556L165.429 32.4579C165.956 31.556 166.926 31.2635 167.952 31.2635C169.385 31.2635 170.838 32.0191 170.86 33.3533V33.5239C170.36 33.2704 169.29 32.895 167.974 32.895C165.335 32.895 162.645 34.1707 162.645 36.5514C162.645 38.7289 164.807 40.1313 167.237 40.1313C169.096 40.1313 170.121 39.3952 170.765 38.5388H170.86V39.7949H173.527V33.5613C173.527 30.6801 171.076 29.068 167.902 29.068ZM167.569 37.9733C166.665 37.9733 165.407 37.58 165.407 36.5969C165.407 35.3391 166.976 34.8564 168.335 34.8564C169.551 34.8564 170.121 35.0921 170.86 35.4025C170.643 36.9072 169.168 37.9733 167.569 37.9733V37.9733ZM183.245 29.4239L180.071 36.4685H179.976L176.694 29.4239H173.716L178.647 39.2684L175.834 44.7464H178.719L186.318 29.4239H183.245V29.4239ZM158.351 39.8209H161.12V23.5705H158.351V39.8209Z" fill="black"/>
</g>
</g>
</g>
<defs>
<linearGradient id="paint0_linear_731_3610" x1="32.2815" y1="41.4983" x2="10.6475" y2="16.8557" gradientUnits="userSpaceOnUse">
<stop stop-color="#00A0FF"/>
<stop offset="0.0066" stop-color="#00A1FF"/>
<stop offset="0.2601" stop-color="#00BEFF"/>
<stop offset="0.5122" stop-color="#00D2FF"/>
<stop offset="0.7604" stop-color="#00DFFF"/>
<stop offset="1" stop-color="#00E3FF"/>
</linearGradient>
<linearGradient id="paint1_linear_731_3610" x1="50.1031" y1="26.8188" x2="14.2717" y2="26.8188" gradientUnits="userSpaceOnUse">
<stop stop-color="#FFE000"/>
<stop offset="0.4087" stop-color="#FFBD00"/>
<stop offset="0.7754" stop-color="#FFA500"/>
<stop offset="1" stop-color="#FF9C00"/>
</linearGradient>
<linearGradient id="paint2_linear_731_3610" x1="36.7642" y1="23.8356" x2="7.42671" y2="-9.5818" gradientUnits="userSpaceOnUse">
<stop stop-color="#FF3A44"/>
<stop offset="1" stop-color="#C31162"/>
</linearGradient>
<linearGradient id="paint3_linear_731_3610" x1="10.8058" y1="52.5922" x2="23.9063" y2="37.6699" gradientUnits="userSpaceOnUse">
<stop stop-color="#32A071"/>
<stop offset="0.0685" stop-color="#2DA771"/>
<stop offset="0.4762" stop-color="#15CF74"/>
<stop offset="0.8009" stop-color="#06E775"/>
<stop offset="1" stop-color="#00F076"/>
</linearGradient>
</defs>
</svg>
