<svg width="30" height="24" viewBox="0 0 30 24" fill="none" xmlns="http://www.w3.org/2000/svg">
<path id="Vector" d="M10.6246 3.17045C5.90508 0.768009 2.41475 0.369946 1.3116 1.88064C-0.301935 4.0903 4.51023 10.3507 12.0599 15.8636C19.6095 21.3766 27.0377 24.0544 28.6513 21.8448C29.7159 20.3869 28.3139 17.3583 24.8434 13.7518M9.20625 4.00338C5.87571 2.40279 3.36446 1.87305 2.66621 2.82926C1.47026 4.46705 6.04586 9.8439 12.8861 14.8388C19.7263 19.8337 26.241 22.5552 27.4369 20.9174C28.118 19.9847 26.9274 17.8395 24.5127 15.2428M24.8434 12.7598C24.8434 18.4211 20.254 23.0105 14.5926 23.0105C8.93134 23.0105 4.34195 18.4211 4.34195 12.7598C4.34195 7.0985 8.93134 2.50909 14.5926 2.50909C20.254 2.50909 24.8434 7.0985 24.8434 12.7598Z" stroke="white" stroke-linecap="round" stroke-linejoin="round"/>
</svg>
