<svg width="39" height="34" viewBox="0 0 39 34" fill="none" xmlns="http://www.w3.org/2000/svg">
<path id="Vector" d="M0.937647 23.7311C0.935376 23.8168 0.959454 23.9016 1.0074 23.9765C1.05535 24.0515 1.12544 24.114 1.21045 24.1577L20.2275 33.9168C20.3153 33.9619 20.4157 33.9851 20.5176 33.984C20.6196 33.9828 20.7193 33.9573 20.8057 33.9102L38.7109 24.1511C38.7924 24.1066 38.8593 24.0445 38.9049 23.9709C38.9505 23.8972 38.9734 23.8145 38.9712 23.7309C38.969 23.6473 38.9419 23.5656 38.8924 23.4939C38.843 23.4221 38.7729 23.3627 38.6892 23.3215L32.7983 20.4284L38.7109 17.2058C38.7924 17.1613 38.8593 17.0993 38.9049 17.0256C38.9505 16.952 38.9734 16.8693 38.9712 16.7857C38.969 16.7021 38.9419 16.6204 38.8924 16.5486C38.843 16.4768 38.7729 16.4174 38.6892 16.3762L32.7984 13.4832L38.7109 10.2606C38.7925 10.2161 38.8593 10.154 38.905 10.0804C38.9506 10.0067 38.9734 9.92404 38.9713 9.84042C38.9691 9.7568 38.9419 9.6751 38.8925 9.60333C38.843 9.53156 38.773 9.47217 38.6892 9.43097L20.784 0.637694C20.7026 0.597747 20.6109 0.576265 20.5175 0.575234C20.424 0.574204 20.3317 0.593657 20.2492 0.631797L1.23218 9.42507C1.14504 9.46538 1.07183 9.52512 1.02007 9.59815C0.968312 9.67117 0.939865 9.75485 0.937654 9.84059C0.935444 9.92632 0.959549 10.011 1.00749 10.086C1.05544 10.161 1.12549 10.2235 1.21046 10.2671L7.47659 13.4829L1.23218 16.3703C1.14505 16.4106 1.07184 16.4704 1.02008 16.5434C0.968323 16.6164 0.939876 16.7001 0.937666 16.7858C0.935455 16.8716 0.959559 16.9563 1.0075 17.0312C1.05545 17.1062 1.1255 17.1687 1.21047 17.2124L7.47679 20.4281L1.23217 23.3156C1.145 23.3559 1.07177 23.4156 1.02 23.4886C0.968237 23.5617 0.93981 23.6454 0.937647 23.7311ZM20.5022 1.60901L37.33 9.87313L20.5017 19.0454L2.62906 9.87337L20.5022 1.60901ZM8.59812 14.0585L20.2275 20.0266C20.3153 20.0716 20.4157 20.0949 20.5176 20.0937C20.6196 20.0926 20.7193 20.067 20.8057 20.02L31.7275 14.0669L37.33 16.8184L20.5017 25.9904L2.62906 16.8186L8.59812 14.0585ZM8.59833 21.0037L20.2275 26.9716C20.3153 27.0167 20.4157 27.0399 20.5177 27.0387C20.6196 27.0376 20.7193 27.012 20.8057 26.965L31.7274 21.0121L37.33 23.7636L20.5017 32.9356L2.62906 23.7639L8.59833 21.0037Z" fill="white"/>
</svg>
