<svg width="26" height="17" viewBox="0 0 26 17" fill="none" xmlns="http://www.w3.org/2000/svg">
<g id="Logo" clip-path="url(#clip0_1_1217)">
<path id="Right" d="M25.667 8.59727C25.667 12.8677 22.166 16.3226 17.8387 16.3226C16.0121 16.3226 14.3377 15.7003 13.0112 14.6702C14.8378 13.2539 15.9903 11.0651 15.9903 8.59727C15.9903 6.12946 14.8161 3.94062 13.0112 2.52431C14.3377 1.49427 16.0121 0.871948 17.8387 0.871948C22.166 0.871948 25.667 4.34834 25.667 8.59727Z" fill="#F79E1B"/>
<path id="Middle" d="M13.0111 2.52429C13.0111 2.52429 13.0111 2.52429 13.0111 2.52429C14.816 3.9406 15.9902 6.12944 15.9902 8.59725C15.9902 11.0651 14.8377 13.2539 13.0111 14.6702L12.9893 14.6702C11.1845 13.2754 10.0103 11.0651 10.0103 8.5973C10.0103 6.12949 11.1845 3.94065 12.9894 2.52434C12.9893 2.52432 12.9894 2.52436 12.9894 2.52434L13.0111 2.52429Z" fill="#FF5F00"/>
<path id="Left" d="M10.0102 8.59739C10.0102 6.12958 11.1844 3.94074 12.9893 2.52443C11.6628 1.49439 9.98843 0.87207 8.16182 0.87207C3.8345 0.87207 0.333496 4.32701 0.333496 8.59739C0.333496 12.8678 3.8345 16.3227 8.16182 16.3227C9.98843 16.3227 11.6628 15.7004 12.9893 14.6704C11.1844 13.2755 10.0102 11.0652 10.0102 8.59739Z" fill="#EB001B"/>
</g>
<defs>
<clipPath id="clip0_1_1217">
<rect width="25.3333" height="15.4507" fill="white" transform="translate(0.333496 0.871948)"/>
</clipPath>
</defs>
</svg>
