<svg width="24" height="40" viewBox="0 0 24 40" fill="none" xmlns="http://www.w3.org/2000/svg">
<g id="Group">
<path id="Vector" d="M3.67056 0C1.64501 0 0 1.64501 0 3.67056V35.788C0 37.8135 1.64501 39.4585 3.67056 39.4585H17.4352C17.496 39.4594 17.5563 39.4481 17.6127 39.4255C17.6692 39.4028 17.7205 39.3691 17.7638 39.3264C17.8071 39.2838 17.8415 39.2329 17.865 39.1768C17.8884 39.1207 17.9005 39.0605 17.9005 38.9997C17.9005 38.9389 17.8884 38.8787 17.865 38.8226C17.8415 38.7665 17.8071 38.7156 17.7638 38.6729C17.7205 38.6302 17.6692 38.5966 17.6127 38.5739C17.5563 38.5512 17.496 38.54 17.4352 38.5409H3.67056C2.13751 38.5409 0.91764 37.321 0.91764 35.788V32.1174H22.941V35.788C22.941 37.321 21.7211 38.5409 20.1881 38.5409C20.1273 38.54 20.0669 38.5512 20.0105 38.5739C16.5 38.5409 19.9027 38.6302 19.8594 38.6729C19.8161 38.7156 19.7817 38.7665 19.7583 38.8226C19.7348 38.8787 19.7227 38.9389 19.7227 38.9997C19.7227 39.0605 19.7348 39.1207 19.7583 39.1768C19.7817 39.2329 19.8161 39.2838 19.8594 39.3264C19.9027 39.3691 19.9541 39.4028 20.0105 39.4255C20.0669 39.4481 20.1273 39.4594 20.1881 39.4585C22.2136 39.4585 23.8586 37.8135 23.8586 35.788V3.67056C23.8586 1.64501 22.2136 0 20.1881 0H3.67056ZM3.67056 0.91764H20.1881C21.7211 0.91764 22.941 2.1375 22.941 3.67056V4.5882H0.91764V3.67056C0.91764 2.1375 2.13751 0.91764 3.67056 0.91764ZM0.91764 5.50584H22.941V31.1998H0.91764V5.50584ZM11.872 10.5529C11.8103 10.5649 11.7517 10.5893 11.6999 10.6245L5.27643 14.2951C5.20774 14.3346 5.15053 14.391 5.11034 14.4588C5.07015 14.5267 5.04834 14.6036 5.04702 14.6822V22.0234C5.04834 22.102 5.07015 22.1789 5.11034 22.2468C5.15053 22.3146 5.20774 22.371 5.27643 22.4105L11.6999 26.081C11.7697 26.1207 11.8488 26.1415 11.9293 26.1415C12.0098 26.1415 12.0889 26.1207 12.1587 26.081L18.5822 22.4105C18.6509 22.371 18.7081 22.3146 18.7483 22.2468C18.7885 22.1789 18.8103 22.102 18.8116 22.0234V14.6822C18.8103 14.6036 18.7885 14.5267 18.7483 14.4588C18.7081 14.391 18.6509 14.3346 18.5822 14.2951L12.1587 10.6245C12.0984 10.5854 12.0296 10.5609 11.958 10.5529C11.9294 10.5502 11.9006 10.5502 11.872 10.5529ZM11.9293 11.5422L17.4352 14.6822L11.9293 17.8223L6.42348 14.6822L11.9293 11.5422ZM5.979 15.4708L11.4705 18.6109V24.9053L5.979 21.7653V15.4708ZM17.8796 15.4708V21.7653L12.3881 24.9053V18.6109L17.8796 15.4708ZM11.9293 34.4115C11.4225 34.4115 11.0117 34.8223 11.0117 35.3291C11.0117 35.8359 11.4225 36.2468 11.9293 36.2468C12.4361 36.2468 12.847 35.8359 12.847 35.3291C12.847 34.8223 12.4361 34.4115 11.9293 34.4115Z" fill="black"/>
</g>
</svg>
