<svg width="20" height="34" viewBox="0 0 20 34" fill="none" xmlns="http://www.w3.org/2000/svg">
<path id="Vector" d="M5.05386 6.01947C4.55372 7.25734 4.22556 8.73009 4.22556 10.4637C4.22556 11.5661 4.25908 12.6341 4.331 13.653M5.05386 6.01947C6.65551 2.05536 10.0209 0.5 10.0209 0.5C10.0209 0.5 13.3097 2.20242 14.9323 6.01947M5.05386 6.01947C5.05386 6.01947 8.05438 6.89567 10.0209 6.89187C11.9659 6.88811 14.9323 6.01947 14.9323 6.01947M14.9323 6.01947C15.4636 7.26933 15.8162 8.74592 15.8162 10.4637C15.8162 12.4348 15.6989 14.3373 15.4324 16.052M4.58804 16.052C4.58804 16.052 7.87472 16.9258 10.0209 16.9244C12.1588 16.9231 15.4324 16.052 15.4324 16.052M4.58804 16.052C4.47476 15.2909 4.38997 14.4885 4.331 13.653M4.58804 16.052C4.65121 16.4765 4.72325 16.8882 4.80461 17.2856M15.4324 16.052C14.9175 19.3661 13.8456 21.9789 11.9871 23.0312H8.01265C6.38778 22.1244 5.37057 20.0498 4.80461 17.2856M4.331 13.653C4.331 13.653 0.499869 14.8952 0.5 16.9244C0.500127 18.8873 1.74185 23.4674 1.74185 23.4674H2.36278V18.6692C2.36278 17.5661 4.80461 17.2856 4.80461 17.2856M15.669 13.8711C15.669 13.8711 19.5001 15.1133 19.5 17.1425C19.4999 19.1054 18.2581 23.6855 18.2581 23.6855H17.6372L17.6372 18.8873C17.6372 17.7842 15.1954 17.5037 15.1954 17.5037M7.95122 22.8131C7.95122 22.8131 6.68429 24.5626 6.50237 25.773C6.2766 27.2753 7.53725 29.5119 7.53725 29.5119L8.7791 27.0193L9.607 33.5L11.0558 28.2656L12.0907 30.2597C12.0907 30.2597 13.4259 26.7448 13.3326 25.6484C13.2393 24.552 12.0907 22.8131 12.0907 22.8131M12.7117 11.9082C12.7117 13.474 11.507 14.7434 10.021 14.7434C8.53495 14.7434 7.33029 13.474 7.33029 11.9082C7.33029 10.3423 8.53495 9.07286 10.021 9.07286C11.507 9.07286 12.7117 10.3423 12.7117 11.9082Z" stroke="white" stroke-linecap="round" stroke-linejoin="round"/>
</svg>
