<svg width="31" height="11" viewBox="0 0 31 11" fill="none" xmlns="http://www.w3.org/2000/svg">
<g id="Logo" clip-path="url(#clip0_1_883)">
<g id="Shape">
<path d="M22.2533 1.1867C21.7852 1.00346 21.0429 0.801147 20.125 0.801147C17.7818 0.801147 16.1317 2.03425 16.1215 3.79721C16.1021 5.09792 17.303 5.82036 18.2011 6.25406C19.1191 6.69723 19.4312 6.98649 19.4312 7.38152C19.4219 7.98821 18.6894 8.26787 18.0062 8.26787C17.0589 8.26787 16.5513 8.12369 15.7799 7.78615L15.4674 7.64146L15.1354 9.67435C15.6919 9.92455 16.7172 10.1466 17.7818 10.1563C20.2715 10.1563 21.8924 8.9423 21.9116 7.06358C21.9211 6.03267 21.287 5.24274 19.9199 4.59725C19.0899 4.18289 18.5817 3.90349 18.5817 3.47952C18.5914 3.0941 19.0116 2.69933 19.9484 2.69933C20.7198 2.67999 21.2866 2.86297 21.7159 3.04608L21.9305 3.14224L22.2533 1.1867Z" fill="url(#paint0_linear_1_883)"/>
<path d="M13.6515 10.0213H11.2787L12.7628 0.965304H15.1355L13.6515 10.0213Z" fill="url(#paint1_linear_1_883)"/>
<path fill-rule="evenodd" clip-rule="evenodd" d="M28.3359 0.965304H26.5005C25.9345 0.965304 25.5045 1.12895 25.2603 1.71669L21.7358 10.0212H24.2255C24.2255 10.0212 24.6354 8.90349 24.7235 8.66276H27.77C27.8381 8.98071 28.0531 10.0212 28.0531 10.0212H30.2502L28.3359 0.965304ZM25.4069 6.81311C25.6023 6.29286 26.3543 4.27931 26.3543 4.27931C26.3503 4.28706 26.3809 4.2034 26.4265 4.07866L26.427 4.07713L26.4274 4.07613C26.4955 3.8898 26.5966 3.61322 26.6665 3.4123L26.8323 4.19262C26.8323 4.19262 27.2816 6.36034 27.3792 6.81311H25.4069Z" fill="url(#paint2_linear_1_883)"/>
<path d="M9.29681 0.965304L6.97303 7.14067L6.7191 5.88823L6.71887 5.88745L5.88919 1.72655C5.75255 1.14816 5.33267 0.984383 4.8152 0.965304H0.997552L0.958496 1.14828C1.88961 1.38325 2.7224 1.72185 3.4521 2.14284L5.56701 10.0118H8.07621L11.8059 0.965304H9.29681Z" fill="url(#paint3_linear_1_883)"/>
</g>
</g>
<defs>
<linearGradient id="paint0_linear_1_883" x1="0.958496" y1="5.49842" x2="30.2502" y2="5.49842" gradientUnits="userSpaceOnUse">
<stop stop-color="#222357"/>
<stop offset="1" stop-color="#254AA5"/>
</linearGradient>
<linearGradient id="paint1_linear_1_883" x1="0.958496" y1="5.49842" x2="30.2502" y2="5.49842" gradientUnits="userSpaceOnUse">
<stop stop-color="#222357"/>
<stop offset="1" stop-color="#254AA5"/>
</linearGradient>
<linearGradient id="paint2_linear_1_883" x1="0.958496" y1="5.49842" x2="30.2502" y2="5.49842" gradientUnits="userSpaceOnUse">
<stop stop-color="#222357"/>
<stop offset="1" stop-color="#254AA5"/>
</linearGradient>
<linearGradient id="paint3_linear_1_883" x1="0.958496" y1="5.49842" x2="30.2502" y2="5.49842" gradientUnits="userSpaceOnUse">
<stop stop-color="#222357"/>
<stop offset="1" stop-color="#254AA5"/>
</linearGradient>
<clipPath id="clip0_1_883">
<rect width="29.2917" height="9.35516" fill="white" transform="translate(0.958496 0.801147)"/>
</clipPath>
</defs>
</svg>
